<?xml version="1.0" standalone="no"?>
<!DOCTYPE svg PUBLIC "-//W3C//DTD SVG 20010904//EN"
 "http://www.w3.org/TR/2001/REC-SVG-20010904/DTD/svg10.dtd">
<svg version="1.0" xmlns="http://www.w3.org/2000/svg"
 width="512.000000pt" height="512.000000pt" viewBox="0 0 512.000000 512.000000"
 preserveAspectRatio="xMidYMid meet">
<metadata>
Created by potrace 1.11, written by Peter Selinger 2001-2013
</metadata>
<g transform="translate(0.000000,512.000000) scale(0.100000,-0.100000)"
fill="#000000" stroke="none">
<path d="M790 2565 l0 -1926 1173 4 c1244 3 1214 2 1442 51 226 48 449 146
590 259 147 118 258 290 306 472 27 104 36 303 20 427 -47 349 -262 620 -603
760 l-77 31 77 51 c104 67 225 193 286 294 160 268 179 624 47 897 -157 327
-511 530 -1029 590 -104 12 -313 15 -1179 15 l-1053 0 0 -1925z m2084 1217
c44 -12 103 -33 133 -46 71 -33 156 -116 190 -185 26 -52 28 -65 28 -181 0
-121 -1 -128 -32 -191 -56 -112 -158 -186 -322 -232 -73 -20 -100 -21 -628
-25 l-553 -3 0 446 0 446 553 -3 c534 -4 555 -4 631 -26z m106 -1541 c235 -51
366 -143 422 -298 27 -75 29 -223 5 -303 -36 -121 -143 -223 -282 -268 -147
-49 -197 -52 -836 -52 l-599 0 0 471 0 470 618 -4 c419 -3 635 -8 672 -16z"/>
</g>
</svg>
